<svg xmlns="http://www.w3.org/2000/svg" xmlns:xlink="http://www.w3.org/1999/xlink" width="150" zoomAndPan="magnify" viewBox="0 0 112.5 37.5" height="50" preserveAspectRatio="xMidYMid meet" version="1.0"><defs><g/></defs><g fill="#000000" fill-opacity="1"><g transform="translate(19.447727, 26.388755)"><g><path d="M 12 -14.15625 L 12 -16.359375 L 18.3125 -16.359375 L 18.3125 -14.828125 L 16.8125 -14.828125 L 16.8125 0.203125 L 12.078125 0.203125 L 12.03125 -12.671875 C 11.351562 -13.265625 10.625 -13.5625 9.84375 -13.5625 L 9.65625 -13.5625 C 7.394531 -13.394531 5.910156 -12.75 5.203125 -11.625 C 4.960938 -11.269531 4.84375 -10.953125 4.84375 -10.671875 C 4.84375 -10.304688 5.035156 -10.015625 5.421875 -9.796875 C 5.566406 -9.710938 5.707031 -9.671875 5.84375 -9.671875 C 6.332031 -9.671875 6.753906 -10.25 7.109375 -11.40625 C 9.859375 -9.625 11.234375 -8.15625 11.234375 -7 C 11.234375 -5.644531 10.648438 -4.351562 9.484375 -3.125 C 8.179688 -1.738281 6.257812 -1.046875 3.71875 -1.046875 C 2.40625 -1.046875 1.296875 -1.164062 0.390625 -1.40625 L 0.390625 -2.890625 C 0.890625 -2.796875 1.242188 -2.75 1.453125 -2.75 C 2.566406 -2.75 3.625 -3.171875 4.625 -4.015625 C 6.207031 -5.316406 7 -6.71875 7 -8.21875 C 5.914062 -7.195312 4.484375 -6.6875 2.703125 -6.6875 C 1.953125 -6.6875 1.335938 -6.945312 0.859375 -7.46875 C 0.390625 -8 0.15625 -8.613281 0.15625 -9.3125 C 0.15625 -10.90625 0.585938 -12.253906 1.453125 -13.359375 C 2.859375 -15.210938 4.578125 -16.140625 6.609375 -16.140625 C 8.640625 -16.140625 10.4375 -15.476562 12 -14.15625 Z M 12 -14.15625 "/></g></g></g><g fill="#000000" fill-opacity="1"><g transform="translate(37.41488, 26.388755)"><g><path d="M 16.390625 -14.828125 L 16.390625 0.203125 L 11.65625 0.203125 L 11.609375 -10.296875 C 11.441406 -10.554688 11.269531 -10.796875 11.09375 -11.015625 C 10.21875 -12.023438 8.878906 -12.53125 7.078125 -12.53125 C 6.503906 -12.53125 5.859375 -12.421875 5.140625 -12.203125 C 4.429688 -11.984375 3.878906 -11.703125 3.484375 -11.359375 C 2.890625 -10.847656 2.59375 -10.125 2.59375 -9.1875 C 2.59375 -8.425781 2.859375 -7.75 3.390625 -7.15625 C 3.765625 -6.726562 4.21875 -6.515625 4.75 -6.515625 C 5.007812 -6.515625 5.257812 -6.617188 5.5 -6.828125 C 5.875 -7.160156 6.0625 -7.640625 6.0625 -8.265625 C 6.0625 -8.765625 5.9375 -9.359375 5.6875 -10.046875 L 10.71875 -10.25 C 10.78125 -9.769531 10.8125 -9.320312 10.8125 -8.90625 C 10.8125 -7.238281 10.332031 -6.035156 9.375 -5.296875 C 8.539062 -4.554688 7.519531 -4.1875 6.3125 -4.1875 C 5.5 -4.1875 4.664062 -4.414062 3.8125 -4.875 C 2.789062 -5.4375 1.929688 -6.382812 1.234375 -7.71875 C 0.609375 -8.9375 0.300781 -10.234375 0.3125 -11.609375 C 0.332031 -12.992188 0.8125 -14.097656 1.75 -14.921875 C 2.757812 -15.878906 4.066406 -16.359375 5.671875 -16.359375 C 7.898438 -16.359375 9.878906 -15.28125 11.609375 -13.125 L 11.578125 -16.359375 L 18.046875 -16.359375 L 18.046875 -14.828125 Z M 16.390625 -14.828125 "/></g></g></g><g fill="#000000" fill-opacity="1"><g transform="translate(54.887071, 26.388755)"><g><path d="M 18.59375 -14.828125 L 18.59375 0.203125 L 13.859375 0.203125 L 13.828125 -4.65625 C 13.503906 -5.507812 13.078125 -6.203125 12.546875 -6.734375 C 11.535156 -7.734375 10.0625 -8.234375 8.125 -8.234375 C 7.476562 -8.234375 6.765625 -8.128906 5.984375 -7.921875 C 4.109375 -7.410156 3.171875 -6.394531 3.171875 -4.875 C 3.171875 -4.132812 3.457031 -3.472656 4.03125 -2.890625 C 4.476562 -2.453125 5.023438 -2.234375 5.671875 -2.234375 C 6.046875 -2.234375 6.367188 -2.335938 6.640625 -2.546875 C 7.066406 -2.890625 7.28125 -3.378906 7.28125 -4.015625 C 7.28125 -4.503906 7.140625 -5.085938 6.859375 -5.765625 L 12.421875 -5.96875 L 12.453125 -5.203125 C 12.453125 -3.253906 11.941406 -1.867188 10.921875 -1.046875 C 9.992188 -0.296875 8.828125 0.078125 7.421875 0.078125 C 4.898438 0.078125 2.976562 -1.101562 1.65625 -3.46875 C 0.96875 -4.664062 0.632812 -5.953125 0.65625 -7.328125 C 0.675781 -8.710938 1.203125 -9.8125 2.234375 -10.625 C 3.171875 -11.375 4.160156 -11.804688 5.203125 -11.921875 C 5.296875 -12.304688 5.34375 -12.644531 5.34375 -12.9375 C 5.34375 -13.488281 5.1875 -13.921875 4.875 -14.234375 C 4.539062 -14.554688 3.878906 -14.753906 2.890625 -14.828125 L -0.265625 -14.828125 L -0.265625 -16.359375 L 20.265625 -16.359375 L 20.265625 -14.828125 Z M 9.484375 -14.828125 C 9.960938 -14.066406 10.203125 -13.039062 10.203125 -11.75 L 10.171875 -11.15625 C 11.535156 -10.46875 12.753906 -9.394531 13.828125 -7.9375 L 13.8125 -14.828125 Z M 9.484375 -14.828125 "/></g></g></g><g fill="#000000" fill-opacity="1"><g transform="translate(74.537092, 26.388755)"><g><path d="M 9.1875 -0.5625 C 8.488281 -0.5625 7.757812 -0.625 7 -0.75 C 3.832031 -1.21875 1.722656 -3.117188 0.671875 -6.453125 L 1.6875 -6.953125 C 2.757812 -4.492188 4.316406 -3.039062 6.359375 -2.59375 C 6.554688 -2.5625 6.75 -2.546875 6.9375 -2.546875 C 8.039062 -2.546875 9.09375 -3.023438 10.09375 -3.984375 C 11.101562 -4.953125 11.878906 -6.125 12.421875 -7.5 C 12.785156 -8.382812 12.96875 -9.148438 12.96875 -9.796875 C 12.96875 -10.148438 12.921875 -10.460938 12.828125 -10.734375 C 12.410156 -11.628906 11.8125 -12.265625 11.03125 -12.640625 C 10.488281 -12.859375 10.003906 -12.96875 9.578125 -12.96875 C 9.066406 -12.96875 8.628906 -12.820312 8.265625 -12.53125 C 7.785156 -12.164062 7.546875 -11.75 7.546875 -11.28125 C 7.546875 -10.257812 8.394531 -9.425781 10.09375 -8.78125 L 6.5625 -4.53125 C 4.5 -6.144531 3.46875 -7.710938 3.46875 -9.234375 C 3.46875 -10.191406 3.789062 -11.125 4.4375 -12.03125 C 5.15625 -13.070312 6.132812 -13.820312 7.375 -14.28125 C 8.019531 -14.5 8.695312 -14.609375 9.40625 -14.609375 C 11.8125 -14.609375 13.898438 -13.78125 15.671875 -12.125 C 16.691406 -11.164062 17.203125 -10.007812 17.203125 -8.65625 C 17.203125 -6.957031 16.453125 -5.0625 14.953125 -2.96875 C 13.648438 -1.363281 11.726562 -0.5625 9.1875 -0.5625 Z M 18.59375 -16.359375 L 18.59375 -14.828125 L -0.515625 -14.828125 L -0.515625 -16.359375 Z M 18.59375 -16.359375 "/></g></g></g></svg>