<svg xmlns="http://www.w3.org/2000/svg" xmlns:xlink="http://www.w3.org/1999/xlink" width="150" zoomAndPan="magnify" viewBox="0 0 112.5 37.5" height="50" preserveAspectRatio="xMidYMid meet" version="1.0"><defs><g/></defs><g fill="#000000" fill-opacity="1"><g transform="translate(1.233553, 32.031151)"><g><path d="M 19.109375 0 L 19.109375 -15.5 C 18.367188 -16.375 17.582031 -17.191406 16.75 -17.953125 C 15.914062 -18.722656 15.007812 -19.351562 14.03125 -19.84375 C 13.0625 -20.332031 12.019531 -20.578125 10.90625 -20.578125 C 9.875 -20.578125 9.019531 -20.378906 8.34375 -19.984375 C 7.675781 -19.585938 7.050781 -19.097656 6.46875 -18.515625 C 6.882812 -18.703125 7.34375 -18.847656 7.84375 -18.953125 C 8.351562 -19.054688 8.925781 -19.109375 9.5625 -19.109375 C 11.332031 -19.109375 12.6875 -18.617188 13.625 -17.640625 C 14.5625 -16.671875 15.03125 -15.5 15.03125 -14.125 C 15.03125 -12.53125 14.453125 -11.070312 13.296875 -9.75 C 12.148438 -8.425781 10.398438 -7.109375 8.046875 -5.796875 L 5.03125 -10.03125 C 6.570312 -10.71875 7.796875 -11.382812 8.703125 -12.03125 C 9.617188 -12.675781 10.078125 -13.382812 10.078125 -14.15625 C 10.078125 -14.601562 9.9375 -14.953125 9.65625 -15.203125 C 9.375 -15.453125 8.90625 -15.578125 8.25 -15.578125 C 7.21875 -15.578125 6.054688 -15.234375 4.765625 -14.546875 L 0.59375 -17.890625 C 2 -19.921875 3.503906 -21.601562 5.109375 -22.9375 C 6.722656 -24.269531 8.585938 -24.9375 10.703125 -24.9375 C 12.296875 -24.9375 13.75 -24.59375 15.0625 -23.90625 C 16.382812 -23.21875 17.757812 -22.21875 19.1875 -20.90625 C 19.164062 -21.21875 19.144531 -21.566406 19.125 -21.953125 C 19.113281 -22.335938 19.109375 -22.753906 19.109375 -23.203125 L 19.109375 -27.28125 L 23.4375 -27.28125 L 24.3125 -24.671875 L 28.15625 -24.671875 L 28.15625 -20.296875 L 24.34375 -20.296875 L 24.34375 0 Z M 19.109375 0 "/></g></g></g><g fill="#000000" fill-opacity="1"><g transform="translate(28.981285, 32.031151)"><g><path d="M 25.890625 -24.671875 L 25.890625 -20.296875 L 22.09375 -20.296875 L 22.09375 0 L 16.859375 0 L 16.859375 -15.546875 C 15.691406 -16.921875 14.46875 -18.082031 13.1875 -19.03125 C 11.90625 -19.988281 10.601562 -20.46875 9.28125 -20.46875 C 8.488281 -20.46875 7.847656 -20.238281 7.359375 -19.78125 C 6.867188 -19.332031 6.625 -18.703125 6.625 -17.890625 C 6.625 -17.328125 6.757812 -16.816406 7.03125 -16.359375 C 7.3125 -15.898438 7.804688 -15.53125 8.515625 -15.25 C 9.234375 -14.96875 10.269531 -14.800781 11.625 -14.75 L 11.03125 -9.59375 C 7.59375 -9.988281 5.097656 -10.921875 3.546875 -12.390625 C 2.003906 -13.859375 1.234375 -15.726562 1.234375 -18 C 1.234375 -19.40625 1.550781 -20.628906 2.1875 -21.671875 C 2.820312 -22.710938 3.679688 -23.515625 4.765625 -24.078125 C 5.847656 -24.648438 7.078125 -24.9375 8.453125 -24.9375 C 10.273438 -24.9375 11.859375 -24.523438 13.203125 -23.703125 C 14.554688 -22.890625 15.800781 -21.941406 16.9375 -20.859375 C 16.882812 -21.859375 16.859375 -22.835938 16.859375 -23.796875 L 16.859375 -27.28125 L 21.140625 -27.28125 L 22.046875 -24.671875 Z M 25.890625 -24.671875 "/></g></g></g><g fill="#000000" fill-opacity="1"><g transform="translate(54.469634, 32.031151)"><g><path d="M 25.96875 -24.671875 L 25.96875 -20.296875 L 22.171875 -20.296875 L 22.171875 0 L 16.9375 0 L 16.9375 -6.03125 C 15.664062 -7.507812 14.390625 -8.691406 13.109375 -9.578125 C 11.828125 -10.460938 10.578125 -10.90625 9.359375 -10.90625 C 8.671875 -10.90625 8.101562 -10.742188 7.65625 -10.421875 C 7.207031 -10.109375 6.984375 -9.632812 6.984375 -9 C 6.984375 -8.414062 7.191406 -7.921875 7.609375 -7.515625 C 8.035156 -7.109375 8.722656 -6.734375 9.671875 -6.390625 L 7.34375 -1.984375 C 5.5625 -2.671875 4.15625 -3.660156 3.125 -4.953125 C 2.101562 -6.253906 1.59375 -7.65625 1.59375 -9.15625 C 1.59375 -10.425781 1.863281 -11.484375 2.40625 -12.328125 C 2.945312 -13.179688 3.660156 -13.835938 4.546875 -14.296875 C 5.429688 -14.753906 6.375 -15.050781 7.375 -15.1875 C 7.113281 -15.789062 6.71875 -16.269531 6.1875 -16.625 C 5.65625 -16.988281 4.945312 -17.273438 4.0625 -17.484375 C 3.175781 -17.703125 2.019531 -17.898438 0.59375 -18.078125 L 1.15625 -20.296875 L -0.390625 -20.296875 L -0.390625 -24.671875 Z M 16.9375 -20.296875 L 8.453125 -20.296875 C 9.660156 -19.742188 10.609375 -19.003906 11.296875 -18.078125 C 11.984375 -17.148438 12.421875 -15.945312 12.609375 -14.46875 C 14.066406 -13.894531 15.519531 -12.90625 16.96875 -11.5 C 16.945312 -11.945312 16.9375 -12.394531 16.9375 -12.84375 C 16.9375 -13.289062 16.9375 -13.726562 16.9375 -14.15625 Z M 16.9375 -20.296875 "/></g></g></g><g fill="#000000" fill-opacity="1"><g transform="translate(80.037221, 32.031151)"><g><path d="M 29.421875 -24.671875 L 29.421875 -20.296875 L -0.390625 -20.296875 L -0.390625 -24.671875 Z M 17.046875 -1.3125 C 14.566406 -1.3125 12.285156 -1.789062 10.203125 -2.75 C 8.128906 -3.71875 6.289062 -5.335938 4.6875 -7.609375 C 3.09375 -9.890625 1.742188 -13.007812 0.640625 -16.96875 L 5.59375 -18.359375 C 6.832031 -14.078125 8.285156 -10.925781 9.953125 -8.90625 C 11.617188 -6.882812 13.773438 -5.875 16.421875 -5.875 C 18.453125 -5.875 19.957031 -6.269531 20.9375 -7.0625 C 21.914062 -7.851562 22.40625 -9.03125 22.40625 -10.59375 C 22.40625 -11.9375 22.050781 -12.945312 21.34375 -13.625 C 20.644531 -14.300781 19.835938 -14.640625 18.921875 -14.640625 C 18.304688 -14.640625 17.796875 -14.476562 17.390625 -14.15625 C 16.984375 -13.84375 16.78125 -13.367188 16.78125 -12.734375 C 16.78125 -12.148438 16.882812 -11.582031 17.09375 -11.03125 L 12.140625 -10.265625 C 11.867188 -10.878906 11.679688 -11.445312 11.578125 -11.96875 C 11.472656 -12.5 11.421875 -12.960938 11.421875 -13.359375 C 11.421875 -14.679688 11.75 -15.742188 12.40625 -16.546875 C 13.070312 -17.359375 13.929688 -17.945312 14.984375 -18.3125 C 16.046875 -18.6875 17.195312 -18.875 18.4375 -18.875 C 20.425781 -18.875 22.101562 -18.488281 23.46875 -17.71875 C 24.84375 -16.957031 25.890625 -15.914062 26.609375 -14.59375 C 27.328125 -13.269531 27.6875 -11.773438 27.6875 -10.109375 C 27.6875 -8.546875 27.320312 -7.09375 26.59375 -5.75 C 25.863281 -4.40625 24.710938 -3.328125 23.140625 -2.515625 C 21.566406 -1.710938 19.535156 -1.3125 17.046875 -1.3125 Z M 17.046875 -1.3125 "/></g></g></g></svg>